<svg xmlns="http://www.w3.org/2000/svg" viewBox="0 0 167.97 158.59"><title>Ativo 5</title><g id="Camada_2" data-name="Camada 2"><g id="Camada_1-2" data-name="Camada 1"><path d="M84,0A87.55,87.55,0,0,0,37.33,13.36,80.49,80.49,0,0,0,6.39,49,75.26,75.26,0,0,0,1.61,94.77a78,78,0,0,0,23,40.6,85.61,85.61,0,0,0,43,21.7,88.6,88.6,0,0,0,48.52-4.51,83.15,83.15,0,0,0,37.7-29.21A76.23,76.23,0,0,0,168,79.3a77.22,77.22,0,0,0-24.63-56A86.61,86.61,0,0,0,84,0ZM34.32,135.14a55.68,55.68,0,0,1,20.93-20,60,60,0,0,1,57.46,0,55.53,55.53,0,0,1,20.93,20,80.62,80.62,0,0,1-99.32,0Zm104.4-4.4a63.15,63.15,0,0,0-37.38-27,35.79,35.79,0,0,0,16.4-16.62,33.08,33.08,0,0,0,2.1-22.63,34.8,34.8,0,0,0-13.11-19.05,38.67,38.67,0,0,0-45.5,0,34.78,34.78,0,0,0-13.1,19.05,33,33,0,0,0,2.1,22.63,35.79,35.79,0,0,0,16.4,16.62,63.15,63.15,0,0,0-37.38,27A71.82,71.82,0,0,1,8.18,93.38a69.13,69.13,0,0,1,4.45-42.11,74,74,0,0,1,28.46-32.7,81.06,81.06,0,0,1,85.79,0,74,74,0,0,1,28.46,32.7,69.21,69.21,0,0,1,4.45,42.11A71.82,71.82,0,0,1,138.72,130.74ZM84,101.5a31.46,31.46,0,0,1-16.79-4.81A29,29,0,0,1,56.05,83.88a27.05,27.05,0,0,1-1.72-16.5,28.11,28.11,0,0,1,8.28-14.61A30.87,30.87,0,0,1,78.09,45a31.89,31.89,0,0,1,17.46,1.63,29.91,29.91,0,0,1,13.57,10.51A27.4,27.4,0,0,1,114.22,73a27.77,27.77,0,0,1-8.86,20.19A31.18,31.18,0,0,1,84,101.5Z"/></g></g></svg>