<svg xmlns="http://www.w3.org/2000/svg" viewBox="0 0 22 18"><defs><style>.cls-1{fill-opacity:0.5;}</style></defs><title>Ativo 1</title><g id="Camada_2" data-name="Camada 2"><g id="Camada_1-2" data-name="Camada 1"><path class="cls-1" d="M1,1.27,2.28,0,19,16.72,17.73,18l-3.08-3.08A11.58,11.58,0,0,1,11,15.5,11.83,11.83,0,0,1,0,8,11.75,11.75,0,0,1,3.19,3.46ZM11,5a3,3,0,0,1,3,3,3.09,3.09,0,0,1-.17,1L10,5.17A3.09,3.09,0,0,1,11,5ZM11,.5A11.83,11.83,0,0,1,22,8a11.83,11.83,0,0,1-4,5.19l-1.42-1.43A9.89,9.89,0,0,0,19.82,8,9.82,9.82,0,0,0,11,2.5,10.4,10.4,0,0,0,7.84,3L6.3,1.47A11.86,11.86,0,0,1,11,.5ZM2.18,8A9.8,9.8,0,0,0,5.8,12,9.85,9.85,0,0,0,11,13.5a9.29,9.29,0,0,0,2-.21L10.72,11A3.06,3.06,0,0,1,8,8.28L4.6,4.87A9.85,9.85,0,0,0,2.18,8Z"/></g></g></svg>